<svg width="67" height="67" viewBox="0 0 67 67" fill="none" xmlns="http://www.w3.org/2000/svg">
<path d="M33.2129 0C51.5559 0 66.4256 14.8699 66.4258 33.2129C66.4258 51.556 51.556 66.4268 33.2129 66.4268C14.8698 66.4267 0 51.556 0 33.2129C0.000143853 14.8699 14.8699 1.10784e-05 33.2129 0Z" fill="#04C9B0"/>
<path fill-rule="evenodd" clip-rule="evenodd" d="M27.8333 23C27.0819 23 26.3612 23.301 25.8299 23.8368C25.2985 24.3727 25 25.0994 25 25.8571V40.1429C25 40.9006 25.2985 41.6273 25.8299 42.1632C26.3612 42.699 27.0819 43 27.8333 43H29.25C30.0014 43 30.7221 42.699 31.2535 42.1632C31.7848 41.6273 32.0833 40.9006 32.0833 40.1429V25.8571C32.0833 25.0994 31.7848 24.3727 31.2535 23.8368C30.7221 23.301 30.0014 23 29.25 23H27.8333ZM37.75 23C36.9986 23 36.2779 23.301 35.7465 23.8368C35.2152 24.3727 34.9167 25.0994 34.9167 25.8571V40.1429C34.9167 40.9006 35.2152 41.6273 35.7465 42.1632C36.2779 42.699 36.9986 43 37.75 43H39.1667C39.9181 43 40.6388 42.699 41.1701 42.1632C41.7015 41.6273 42 40.9006 42 40.1429V25.8571C42 25.0994 41.7015 24.3727 41.1701 23.8368C40.6388 23.301 39.9181 23 39.1667 23H37.75Z" fill="#0E0E0E"/>
</svg>
